<svg width="59" height="30" viewBox="0 0 59 30" fill="none" xmlns="http://www.w3.org/2000/svg">
<path fill-rule="evenodd" clip-rule="evenodd" d="M54.9715 14.9861C54.9715 14.3028 54.8504 13.6657 54.6079 13.0748C54.3654 12.4838 54.0344 11.9668 53.6148 11.5235C53.1951 11.0803 52.7056 10.7341 52.1461 10.4848C51.5865 10.2355 50.9897 10.1108 50.3556 10.1108C49.7215 10.1108 49.1247 10.2355 48.5652 10.4848C48.0057 10.7341 47.5161 11.0803 47.0965 11.5235C46.6768 11.9668 46.3458 12.4838 46.1034 13.0748C45.8609 13.6657 45.7397 14.3028 45.7397 14.9861C45.7397 15.6694 45.8609 16.3066 46.1034 16.8975C46.3458 17.4885 46.6768 18.0056 47.0965 18.4487C47.5161 18.892 48.0057 19.2382 48.5652 19.4875C49.1247 19.7369 49.7215 19.8615 50.3556 19.8615C50.9897 19.8615 51.5865 19.7369 52.1461 19.4875C52.7056 19.2382 53.1951 18.892 53.6148 18.4487C54.0344 18.0056 54.3654 17.4885 54.6079 16.8975C54.8504 16.3066 54.9715 15.6694 54.9715 14.9861ZM59 14.9861C59 16.1865 58.7762 17.2992 58.3286 18.3241C57.881 19.349 57.2655 20.2355 56.4822 20.9834C55.6989 21.7313 54.7804 22.3222 53.7267 22.7562C52.6729 23.1902 51.5493 23.4072 50.3556 23.4072C49.162 23.4072 48.043 23.1902 46.9986 22.7562C45.9542 22.3222 45.0403 21.7267 44.257 20.9695C43.4737 20.2123 42.8582 19.3213 42.4106 18.2964C41.963 17.2715 41.7392 16.168 41.7392 14.9861C41.7392 13.8227 41.9677 12.7285 42.4246 11.7036C42.8815 10.6787 43.5016 9.78299 44.285 9.01661C45.0682 8.25021 45.9821 7.65006 47.0266 7.21606C48.0709 6.78209 49.1806 6.56509 50.3556 6.56509C51.5493 6.56509 52.6729 6.78209 53.7267 7.21606C54.7804 7.65006 55.6989 8.24098 56.4822 8.98891C57.2655 9.73684 57.881 10.6279 58.3286 11.662C58.7762 12.6962 59 13.8043 59 14.9861ZM40.3404 22.9086C40.0234 23.0563 39.6644 23.1764 39.2634 23.2687C38.8624 23.3611 38.4475 23.4072 38.0185 23.4072C37.4217 23.4072 36.8482 23.3287 36.298 23.1718C35.7478 23.0148 35.2676 22.7609 34.8573 22.41C34.447 22.0591 34.1206 21.602 33.8781 21.0388C33.6357 20.4755 33.5145 19.7969 33.5145 19.0028V0H37.6268V18.3103C37.6268 18.975 37.7621 19.4321 38.0325 19.6815C38.3029 19.9308 38.6246 20.0554 38.9976 20.0554C39.4639 20.0554 39.9115 19.9169 40.3404 19.6399V22.9086V22.9086ZM31.6961 6.95291L24.4224 25.9834C23.8816 27.4054 23.1729 28.4303 22.2963 29.0582C21.4198 29.6861 20.3754 30 19.1631 30C18.9766 30 18.7714 29.9862 18.5476 29.9585C18.3238 29.9307 18.1093 29.8892 17.9042 29.8338L16.5614 26.1219C16.8785 26.2697 17.2048 26.385 17.5405 26.4681C17.8762 26.5513 18.1933 26.5928 18.4917 26.5928C19.1258 26.5928 19.704 26.4497 20.2262 26.1634C20.7484 25.8772 21.1494 25.3463 21.4291 24.5707L21.9886 22.964L15.7501 6.95291H20.1423L23.863 17.2576L27.3599 6.95291H31.6961ZM14.771 4.54294H4.25225V9.69528H14.6311V13.1856H4.25225V22.9917H0V0.858706H14.771V4.54294Z" fill="white"/>
</svg>
